<?xml version="1.0" ?><!DOCTYPE svg  PUBLIC '-//W3C//DTD SVG 1.1//EN'  'http://www.w3.org/Graphics/SVG/1.1/DTD/svg11.dtd'><svg enable-background="new 0 0 32 32" height="32px" version="1.1" viewBox="0 0 32 32" width="32px" xml:space="preserve" xmlns="http://www.w3.org/2000/svg" xmlns:xlink="http://www.w3.org/1999/xlink"><g id="Guides"/><g id="Mail"/><g id="Cloud"/><g id="Home"/><g id="Back"/><g id="Next"/><g id="Reload"/><g id="Buble"/><g id="Accept"/><g id="Reject"/><g id="User"/><g id="Download"/><g id="Upload"/><g id="Camera"><path d="M25.8711,8h-2.3359l-2-3H10.4648l-2,3H6.1289C3.8521,8,2,9.8521,2,12.1289v10.7422C2,25.1479,3.8521,27,6.1289,27h19.7422   C28.1475,27,30,25.1479,30,22.8711V12.1289C30,9.8521,28.1475,8,25.8711,8z M28,22.8711C28,24.0449,27.0449,25,25.8711,25H6.1289   C4.9551,25,4,24.0449,4,22.8711V12.1289C4,10.9551,4.9551,10,6.1289,10H9c0.0337,0,0.062-0.0156,0.0947-0.019   C9.1621,9.9741,9.2251,9.9614,9.29,9.9414c0.063-0.0195,0.1211-0.042,0.1777-0.0732c0.0537-0.0288,0.1021-0.062,0.1504-0.1011   c0.0547-0.0444,0.1025-0.0913,0.1465-0.146C9.7852,9.5967,9.8135,9.582,9.832,9.5547L11.5352,7h8.9297l1.7031,2.5547   c0.0293,0.0435,0.0654,0.0776,0.0996,0.1147c0.0146,0.0161,0.0264,0.0342,0.043,0.0493c0.082,0.0791,0.1748,0.1401,0.2754,0.186   c0.0215,0.0103,0.0439,0.0171,0.0664,0.0249C22.7637,9.9717,22.8789,10,22.998,10C22.999,10,23,10,23,10h2.8711   C27.0449,10,28,10.9551,28,12.1289V22.8711z M16,12c-2.7568,0-5,2.2432-5,5s2.2432,5,5,5s5-2.2432,5-5S18.7568,12,16,12z M16,20   c-1.6543,0-3-1.3457-3-3s1.3457-3,3-3s3,1.3457,3,3S17.6543,20,16,20z"/></g><g id="Notification"/><g id="About"/><g id="Search"/><g id="Cart"/><g id="Sound"/><g id="List"/><g id="Settings"/></svg>